<?xml version="1.0" encoding="UTF-8"?><svg id="Hilfslinien" xmlns="http://www.w3.org/2000/svg" viewBox="0 0 173.76 71.67"><polygon points="80.71 31.77 80.73 17.26 83.5 17.26 83.53 29.33 89.15 29.33 89.15 31.77 80.71 31.77" fill="#4d5858"/><polygon points="68.25 31.77 68.28 17.26 76.1 17.26 76.1 19.7 70.99 19.7 70.97 23.23 76.02 23.23 76.02 25.54 71.02 25.54 71 29.33 76.1 29.33 76.1 31.77 68.25 31.77" fill="#4d5858"/><polygon points="39.77 31.77 39.76 17.16 42.69 17.16 49.1 27.81 49.13 17.26 51.75 17.26 51.75 31.84 48.68 31.84 42.38 21.28 42.41 31.77 39.77 31.77" fill="#4d5858"/><polygon points="32.42 31.77 32.43 17.26 35.21 17.26 35.23 31.77 32.42 31.77" fill="#4d5858"/><path d="M20.73,27.33h-1.1v-12.26c0-2.37-2.76-3.96-3.84-4.28l-.95,1.51c.55.2,2.54.91,2.54,2.72v10.68c-2.07-1.46-3.55-3.25-3.55-5.74v-9.88h13.8v9.88c0,2.49-1.48,4.28-3.54,5.74v-10.68c0-1.82,1.98-2.52,2.53-2.72l-.95-1.51c-1.08.33-3.84,1.92-3.84,4.28v12.26h-1.1Z" fill="#00945e"/><path d="M62.4,17.27c.67.19,1.31.47,1.93.83l.06.04-.04.07-1.04,2.02-.04.08-.08-.05c-.36-.24-.84-.51-1.34-.7-.4-.15-.8-.26-1.15-.26-.69,0-1.23.21-1.61.54-.4.36-.62.87-.62,1.44,0,1.18,1.09,1.64,2.32,2.16,1.66.7,3.57,1.52,3.57,4.32v.03h0c0,1.17-.49,2.22-1.34,2.97-.84.75-2.04,1.21-3.48,1.21h-.05c-.88,0-1.72-.19-2.5-.45-.78-.26-1.5-.61-2.12-.96l-.07-.04.04-.07,1.18-2.01.04-.06.07.04c.11.06.23.13.35.19.83.46,1.92,1.07,2.8,1.07.62,0,1.23-.18,1.65-.52.37-.3.61-.74.61-1.31,0-1.18-1.14-1.69-2.42-2.26-1.68-.75-3.6-1.6-3.6-4.2,0-1.25.51-2.35,1.38-3.14.85-.77,2.05-1.24,3.45-1.24.69,0,1.36.1,2.01.28" fill="#4d5858"/><path d="M92.42,30.85c1.2.75,2.38,1.14,3.94,1.14,3.15,0,4.65-1.99,4.65-4.13,0-4.5-6.45-3.78-6.45-6.93,0-1.72,1.41-2.51,2.65-2.51,1.35,0,2.2.5,3.05,1.06l.68-1.31c-1.14-.68-2.4-1.12-3.82-1.12-2.55,0-4.36,1.55-4.36,3.77,0,5.02,6.33,3.53,6.33,7.17,0,1.6-1.16,2.62-2.84,2.61-1.22,0-2.72-.75-3.48-1.29l-.79,1.29.44.23Z" fill="#00945e"/><path d="M159.92,31.7v-1.49h-6.03l.04-12.86h-1.78v14.35s7.77,0,7.77,0ZM144.29,25.44h-4.71l2.41-6.47h.04l2.26,6.47ZM135.1,31.72h1.85l2.01-4.79h5.93l1.85,4.79h1.99l-5.81-14.37h-1.7l-6.12,14.37ZM123.88,18.84h4.54l.02,12.86h1.73l.03-12.86h4.54v-1.49h-10.87v1.49ZM118.37,31.7h1.79v-14.35s-1.77,0-1.77,0v14.35ZM106.95,31.7v-5.93h2.06c2.36,0,5.1-1.1,5.1-4.29,0-2.74-1.84-4.13-4.56-4.13h-4.33v14.35h1.74ZM106.98,18.59h2.16c2.32,0,3.19,1.35,3.19,2.88,0,2.07-1.59,2.92-3.11,2.92h-2.28l.04-5.8Z" fill="#00945e"/><path d="M124.7,44.67h.68l.03-4.31h.01l2.92,4.33h.63l.05-5.42h-.68l-.03,4.27h-.01l-2.95-4.28h-.63l-.02,5.41ZM120.45,39.73h.81c.88,0,1.2.51,1.2,1.09,0,.79-.69,1.02-1.35,1.02h-.67v-2.11ZM119.73,44.67h.68l.03-2.31h.43c.52,0,.67.31,1.01.74l1.17,1.58h.84l-1.23-1.64c-.22-.28-.53-.77-.89-.84h0c.76-.12,1.36-.63,1.36-1.51s-.69-1.42-1.72-1.42h-1.63l-.05,5.41ZM115.67,44.67h2.86v-.56h-2.17l.02-1.88h2.06v-.56h-2.06v-1.84h2.13v-.56h-2.78l-.05,5.41ZM111.85,39.73h.54c.86,0,1.2.33,1.2.93,0,.55-.36.93-1.25.93h-.51l.02-1.86ZM111.83,42.1h.63c.78,0,1.25.34,1.25,1,0,.74-.44,1.05-1.12,1.05h-.79l.03-2.05ZM111.12,44.67h1.52c1.06,0,1.75-.54,1.75-1.5,0-.69-.4-1.2-1.08-1.32v-.02c.62-.17.95-.59.95-1.26,0-.61-.41-1.31-1.59-1.31h-1.5l-.05,5.41ZM107.8,44.67v-.56h-2.31l.05-4.84h-.67l-.05,5.41h2.98ZM102.24,42.31h-1.77l.91-2.44h.01l.85,2.44ZM98.79,44.68h.7l.74-1.81h2.23l.71,1.81h.75l-2.19-5.42h-.64l-2.3,5.42ZM94.92,39.82h1.71l-.05,4.85h.67l.05-4.85h1.71v-.56h-4.09v.56ZM93.21,44.67h.67l.05-5.41h-.67l-.05,5.41ZM88.74,44.67h.67l.03-2.23h.77c.89,0,1.92-.41,1.92-1.62,0-1.03-.69-1.56-1.72-1.56h-1.63l-.05,5.41ZM89.45,39.73h.81c.88,0,1.21.51,1.21,1.09,0,.78-.6,1.1-1.17,1.1h-.86v-2.19ZM84.32,44.35c.45.28.9.43,1.48.43,1.19,0,1.75-.75,1.75-1.55,0-1.7-2.43-1.42-2.43-2.61,0-.65.53-.95,1-.95.51,0,.83.19,1.15.4l.26-.49c-.43-.26-.91-.42-1.44-.42-.96,0-1.64.59-1.64,1.42,0,1.89,2.38,1.33,2.38,2.7,0,.6-.44.98-1.07.98-.42,0-.86-.19-1.15-.4l-.3.48ZM80.34,44.35c.45.28.9.43,1.48.43,1.19,0,1.75-.75,1.75-1.55,0-1.7-2.43-1.42-2.43-2.61,0-.65.53-.95,1-.95.51,0,.83.19,1.15.4l.26-.49c-.43-.26-.91-.42-1.44-.42-.96,0-1.64.59-1.64,1.42,0,1.89,2.38,1.33,2.38,2.7,0,.6-.44.98-1.07.98-.42,0-.86-.19-1.15-.4l-.3.48ZM75.59,39.82h1.71l-.05,4.85h.67l.05-4.85h1.71v-.56h-4.1v.56ZM74.1,42.31h-1.78l.91-2.44h.02l.85,2.44ZM70.62,44.68h.72l.74-1.81h2.23l.71,1.81h.75l-2.2-5.42h-.64l-2.32,5.42ZM73.49,38.85h.72v-.8h-.72v.8ZM72.21,38.85h.72v-.8h-.72v.8ZM66.77,39.82h1.71l-.05,4.85h.67l.05-4.85h1.71v-.56h-4.1v.56ZM65.06,44.67h.67l.05-5.41h-.67l-.05,5.41ZM60.61,44.35c.45.28.9.43,1.48.43,1.19,0,1.75-.75,1.75-1.55,0-1.7-2.43-1.42-2.43-2.61,0-.65.53-.95,1-.95.51,0,.83.19,1.15.4l.26-.49c-.43-.26-.91-.42-1.44-.42-.96,0-1.64.59-1.64,1.42,0,1.89,2.38,1.33,2.38,2.7,0,.6-.44.98-1.07.98-.42,0-.86-.19-1.15-.4l-.29.48ZM56.53,39.73h.8c.88,0,1.2.51,1.2,1.09,0,.79-.69,1.02-1.35,1.02h-.67l.02-2.11ZM55.81,44.67h.68l.03-2.31h.43c.52,0,.67.31,1.01.74l1.18,1.58h.81l-1.21-1.64c-.23-.28-.53-.77-.89-.84h0c.76-.12,1.36-.63,1.36-1.51s-.7-1.42-1.72-1.42h-1.63l-.05,5.41ZM51.76,44.67h2.86v-.56h-2.17l.02-1.88h2.06v-.56h-2.06v-1.84h2.13v-.56h-2.78l-.05,5.41ZM47.92,44.67h.63l2.29-5.41h-.68l-1.91,4.62-1.75-4.62h-.77l2.19,5.41ZM44.11,44.67h.67l.05-5.41h-.67l-.05,5.41ZM38.24,44.67h.68l.03-4.31h.02l2.93,4.33h.63l.04-5.42h-.68l-.03,4.27h-.02l-2.93-4.28h-.62l-.05,5.41ZM36.08,39.26l-.02,3.33c0,1.24-.67,1.63-1.47,1.63-.96,0-1.48-.45-1.48-1.44,0-.5,0-1.02.01-1.52l.02-1.99h-.67l-.02,1.88c0,.55-.02,1.05-.02,1.48,0,1.64.93,2.16,2.1,2.16,1.06,0,2.16-.41,2.19-2.15l.02-3.37h-.67Z" fill="#4d5858"/><path d="M156.68,54.41h2.86v-.56h-2.17v-1.89h2.07v-.56h-2.06l.02-1.84h2.12v-.56h-2.78l-.05,5.41ZM150.83,54.41h.68l.03-4.31h.02l2.91,4.31h.63l.06-5.4h-.68l-.03,4.28h-.02l-2.92-4.28h-.63l-.04,5.41ZM146.58,49.47h.81c.87,0,1.21.51,1.21,1.09,0,.79-.69,1.02-1.35,1.02h-.67v-2.11ZM145.86,54.41h.68l.03-2.31h.43c.52,0,.67.31,1.01.74l1.12,1.57h.88l-1.23-1.63c-.22-.28-.53-.77-.89-.84v-.02c.76-.1,1.36-.62,1.36-1.5,0-.9-.69-1.42-1.72-1.42h-1.63l-.05,5.41ZM141.81,54.41h2.86v-.56h-2.17v-1.89h2.07v-.56h-2.06l.02-1.84h2.12v-.56h-2.78l-.05,5.41ZM137.98,49.47h.54c.86,0,1.2.33,1.2.93,0,.55-.36.93-1.25.93h-.51v-1.86ZM137.96,51.85h.63c.78,0,1.25.34,1.25,1,0,.74-.44,1.05-1.13,1.05h-.79l.03-2.05ZM137.25,54.41h1.52c1.06,0,1.75-.54,1.75-1.5,0-.69-.4-1.2-1.08-1.32h0c.62-.19.95-.61.95-1.27,0-.61-.41-1.31-1.59-1.31h-1.5l-.05,5.41ZM130.95,54.41h2.86v-.56h-2.17l.02-1.89h2.06v-.56h-2.06l.02-1.84h2.12v-.56h-2.78l-.05,5.41ZM125.14,54.41h1.49c1.75,0,3.1-.94,3.1-2.78,0-1.32-.84-2.63-2.92-2.63h-1.62l-.05,5.41ZM125.86,49.52h.83c1.44,0,2.37.8,2.37,2.16,0,1.49-.98,2.22-2.53,2.22h-.72l.05-4.37ZM118.84,54.41h2.86v-.56h-2.17l.02-1.89h2.06v-.56h-2.06l.02-1.84h2.12v-.56h-2.78l-.05,5.41ZM114.59,49.47h.8c.88,0,1.2.51,1.2,1.09,0,.79-.69,1.02-1.35,1.02h-.67l.02-2.11ZM113.88,54.41h.68l.03-2.31h.43c.52,0,.67.31,1.01.74l1.17,1.57h.81l-1.2-1.63c-.23-.28-.53-.77-.89-.84v-.02c.76-.1,1.36-.62,1.36-1.5s-.69-1.42-1.72-1.42h-1.63l-.05,5.41ZM111.62,54.41h.67l.05-5.41h-.67l-.05,5.41ZM109.01,52.05h-1.77l.91-2.44h.02l.85,2.44ZM105.55,54.41h.7l.75-1.79h2.23l.7,1.79h.72l-2.17-5.4h-.64l-2.3,5.4ZM101.68,49.57h1.71l-.05,4.85h.67l.05-4.85h1.71v-.56h-4.09v.56ZM99.97,54.41h.67l.05-5.41h-.67l-.05,5.41ZM95.52,54.09c.45.28.9.43,1.48.43,1.19,0,1.75-.75,1.75-1.56,0-1.7-2.43-1.42-2.43-2.61,0-.65.53-.94,1-.94.51,0,.83.19,1.15.4l.26-.49c-.43-.26-.91-.42-1.44-.42-.96,0-1.64.59-1.64,1.42,0,1.89,2.38,1.33,2.38,2.71,0,.6-.44.98-1.07.98-.42,0-.86-.2-1.15-.4l-.3.48ZM91.44,49.47h.8c.88,0,1.2.51,1.2,1.09,0,.79-.69,1.02-1.35,1.02h-.67l.02-2.11ZM90.72,54.41h.68l.03-2.31h.43c.51,0,.67.31,1.01.74l1.15,1.57h.83l-1.21-1.63c-.23-.28-.53-.77-.89-.84v-.02c.76-.1,1.36-.62,1.36-1.5s-.69-1.42-1.72-1.42h-1.63l-.05,5.41ZM86.66,54.41h2.86v-.56h-2.17l.02-1.89h2.05v-.56h-2.06l.02-1.84h2.12v-.56h-2.78l-.05,5.41ZM82.83,54.41h.63l2.31-5.41h-.7l-1.91,4.61-1.75-4.61h-.75l2.17,5.41ZM79.02,54.41h.67l.05-5.41h-.67l-.05,5.41ZM73.14,54.41h.68l.03-4.31h.02l2.9,4.31h.66l.05-5.4h-.68l-.03,4.28h-.02l-2.91-4.28h-.63l-.06,5.41ZM70.99,49l-.02,3.33c0,1.24-.67,1.63-1.47,1.63-.95,0-1.48-.45-1.48-1.44,0-.5,0-1.02.02-1.52l.02-1.99h-.67l-.02,1.88c0,.55-.02,1.05-.02,1.48,0,1.64.93,2.17,2.1,2.17,1.06,0,2.17-.42,2.19-2.15l.02-3.37h-.67ZM64,54.41v-.56h-2.3l.05-4.85h-.67l-.05,5.41h2.97ZM58.45,52.05h-1.77l.91-2.44h.02l.85,2.44ZM55,54.41h.7l.74-1.79h2.23l.71,1.79h.72l-2.17-5.4h-.64l-2.3,5.4ZM51.12,49.57h1.71l-.05,4.85h.67l.05-4.85h1.71v-.56h-4.1v.56ZM49.42,54.41h.67l.05-5.41h-.67l-.05,5.41ZM44.95,54.41h.67l.03-2.23h.77c.89,0,1.92-.42,1.92-1.62,0-1.03-.69-1.56-1.72-1.56h-1.63l-.05,5.41ZM45.66,49.47h.81c.88,0,1.2.51,1.2,1.09,0,.78-.6,1.1-1.17,1.1h-.86l.02-2.19ZM37.98,51.71c0,1.77,1.27,2.81,2.87,2.81s2.87-1.16,2.87-2.81c0-1.77-1.26-2.81-2.87-2.81s-2.87,1.15-2.87,2.81M38.7,51.71c0-1.25.89-2.25,2.15-2.25s2.15,1,2.15,2.25-.89,2.25-2.15,2.25-2.15-1-2.15-2.25M39.69,48.67h.61l.53-.74.55.74h.61l-.8-1.12h-.72l-.78,1.12ZM32.42,54.41h.68l.03-2.45h2.92l-.02,2.45h.68l.05-5.41h-.68l-.03,2.4h-2.92l.02-2.4h-.68l-.05,5.41Z" fill="#4d5858"/></svg>